#!OML:ASF I:\Actors\actors\Patient Classification 1\Patient 1\Session 1\Subject1.ASF
:FULLY-SPECIFIED
:DEGREES
1469
root -0.0571782 17.5973 8.88227 13.3124 -5.10325 -9.35842
lowerback 2.49495 2.59972 7.99712
upperback -10.611 4.28225 0.168783
thorax -12.3925 1.27708 -4.80964
lowerneck -10.6957 3.18043 4.75324
upperneck 22.3108 2.54653 4.14794
head 8.76358 2.03397 0.879461
rclavicle -1.82882e-014 -2.38542e-014
rhumerus -15.0421 44.0126 -107.391
rradius 132.658
rwrist 19.8316
rhand 3.52739 -24.2997
rfingers 7.12502
rthumb 28.9644 -52.0695
lclavicle -1.82882e-014 -2.38542e-014
lhumerus -30.6889 -38.0813 109.479
lradius 139.799
lwrist 5.52913
lhand -22.5111 -43.3532
lfingers 7.12502
lthumb 3.91526 -13.4094
rfemur -9.39997 20.7948 24.2358
rtibia 6.49343
rfoot -11.7677 -21.9944
rtoes -4.30661
lfemur -177.305 -135.868 -189.593
ltibia -4.03098
lfoot -37.923 57.4347
ltoes 21.9299
1470
root -0.0375803 17.5926 8.90738 13.7469 -9.52676 -9.18537
lowerback 2.01746 2.30558 7.27513
upperback -10.6036 3.76267 0.286337
thorax -12.1926 1.10795 -4.19326
lowerneck -10.4313 2.22282 3.23723
upperneck 21.3006 1.15585 5.8842
head 8.33908 1.39086 1.54401
rclavicle -1.68967e-015 -1.35174e-014
rhumerus -13.9518 45.1671 -106.477
rradius 132.884
rwrist 20.5873
rhand 2.82624 -27.0715
rfingers 7.12502
rthumb 28.2945 -54.9544
lclavicle -1.68967e-015 -1.35174e-014
lhumerus -30.0954 -38.2456 109.019
lradius 139.617
lwrist 5.28808
lhand -22.6283 -43.1077
lfingers 7.12502
lthumb 3.80209 -13.1618
rfemur -9.87686 21.7314 23.4169
rtibia 6.07101
rfoot -10.682 -19.8049
rtoes -6.84932
lfemur -175.634 -136.985 -191.689
ltibia -4.08583
lfoot -44.2087 57.8826
ltoes 26.1387
1471
root -0.0224141 17.5908 8.93396 14.1644 -13.7951 -9.12058
lowerback 1.21823 1.984 6.43619
upperback -10.3759 3.18551 0.594526
thorax -11.5449 0.954386 -3.2849
lowerneck -10.6027 1.72357 2.93228
upperneck 20.9668 0.518988 5.81815
head 8.26455 1.04265 1.50273
rclavicle -4.67144e-015 1.66979e-014
rhumerus -12.881 45.7044 -105.731
rradius 133.042
rwrist 20.7754
rhand 2.98817 -27.8788
rfingers 7.12502
rthumb 28.4493 -55.7359
lclavicle -4.67144e-015 1.66979e-014
lhumerus -28.8968 -38.2022 108.276
lradius 139.445
lwrist 5.16012
lhand -22.647 -42.8022
lfingers 7.12502
lthumb 3.78401 -12.856
rfemur -10.356 22.7001 22.7636
rtibia 5.73942
rfoot -9.97801 -17.7543
rtoes -8.10397
lfemur -174.249 -138.389 -193.461
ltibia -4.14829
lfoot -49.1454 58.101
ltoes 28.9663
1472
root -0.00732655 17.5915 8.96877 14.6219 -17.7036 -9.29296
lowerback 0.728077 1.75079 6.18475
upperback -10.4539 2.81022 0.769925
thorax -11.3891 0.802633 -2.89805
lowerneck -10.5516 1.29828 2.7746
upperneck 20.7394 -0.0757284 5.94712
head 8.18851 0.746039 1.50645
rclavicle -1.80894e-014 3.18055e-015
rhumerus -12.8971 45.6321 -106
rradius 133.1
rwrist 21.1167
rhand 2.92595 -27.8885
rfingers 7.12502
rthumb 28.3898 -55.7555
lclavicle -1.80894e-014 3.18055e-015
lhumerus -28.5832 -38.2595 108.073
lradius 139.379
lwrist 4.93296
lhand -23.0793 -42.1679
lfingers 7.12502
lthumb 3.36654 -12.2148
rfemur -10.7074 23.7105 22.3876
rtibia 5.28764
rfoot -9.42767 -15.8894
rtoes -8.08508
lfemur -173.125 -139.87 -194.774
ltibia -4.20895
lfoot -53.3766 58.0021
ltoes 31.3989
1473
root 0.00905824 17.5936 9.01256 15.1003 -21.0856 -9.68561
lowerback 0.215008 1.58652 6.4068
upperback -10.5074 2.55968 0.95898
thorax -11.1664 0.67015 -2.77407
lowerneck -10.5725 1.12605 2.72525
upperneck 20.6572 -0.333116 6.01149
head 8.16989 0.617862 1.50822
rclavicle 6.7885e-014 -5.56597e-015
rhumerus -12.8816 45.7427 -106.162
rradius 133.114
rwrist 21.9669
rhand 2.47858 -28.3654
rfingers 7.12502
rthumb 27.9622 -56.3029
lclavicle 6.7885e-014 -5.56597e-015
lhumerus -28.3486 -38.2947 108.054
lradius 139.325
lwrist 4.83758
lhand -23.5519 -41.9633
lfingers 7.12502
lthumb 2.91007 -12.0034
rfemur -10.899 24.6365 22.2801
rtibia 4.74556
rfoot -8.82588 -14.184
rtoes -8.38178
lfemur -172.091 -141.103 -195.747
ltibia -4.3625
lfoot -56.9014 58.0214
ltoes 33.2008
1474
root 0.0260617 17.5932 9.06244 15.529 -23.8403 -10.1326
lowerback -0.137061 1.4516 6.98562
upperback -10.6231 2.3815 1.10284
thorax -11.1015 0.529926 -2.91191
lowerneck -10.6007 0.998468 2.71978
upperneck 20.7424 -0.546951 6.07981
head 8.20865 0.519657 1.51108
rclavicle 7.40473e-014 0
rhumerus -13.0291 45.5834 -106.445
rradius 133.312
rwrist 21.8365
rhand 2.93693 -28.5432
rfingers 7.12502
rthumb 28.4003 -56.4085
lclavicle 7.40473e-014 0
lhumerus -28.3318 -38.2735 108.219
lradius 139.274
lwrist 4.86648
lhand -23.5817 -42.2047
lfingers 7.12502
lthumb 2.88135 -12.2445
rfemur -11.0253 25.3449 22.2832
rtibia 4.36731
rfoot -8.42047 -12.6618
rtoes -8.84411
lfemur -171.196 -142.134 -196.521
ltibia -4.51329
lfoot -59.5859 58.1137
ltoes 34.255
1475
root 0.0421111 17.5875 9.11336 15.7965 -25.9577 -10.3247
lowerback -0.457785 1.26264 7.48073
upperback -10.7607 2.12903 1.27169
thorax -11.0957 0.360197 -2.97235
lowerneck -10.5009 0.988873 2.42274
upperneck 20.7059 -0.537341 6.22192
head 8.17648 0.507929 1.6072
rclavicle 1.42131e-014 -4.37326e-015
rhumerus -13.3663 45.5347 -106.776
rradius 133.387
rwrist 21.7861
rhand 3.30734 -28.1531
rfingers 7.12502
rthumb 28.7542 -55.9588
lclavicle 1.42131e-014 -4.37326e-015
lhumerus -28.3975 -38.1216 108.58
lradius 139.226
lwrist 4.70377
lhand -23.299 -42.4886
lfingers 7.12502
lthumb 3.15433 -12.5322
rfemur -11.1118 25.8384 22.0769
rtibia 4.13507
rfoot -8.29622 -11.4305
rtoes -8.79125
lfemur -170.5 -142.981 -197.363
ltibia -4.57373
lfoot -61.7595 57.8725
ltoes 35.3882
1476
root 0.0549798 17.5809 9.15906 15.8368 -27.4977 -10.0828
lowerback -0.886641 1.04411 7.53275
upperback -10.854 1.80085 1.46009
thorax -10.9859 0.202324 -2.75965
lowerneck -10.2751 0.98804 2.26774
upperneck 20.4076 -0.453602 6.07471
head 8.03093 0.507195 1.58548
rclavicle 3.84648e-014 1.39149e-014
rhumerus -13.4604 45.6355 -106.77
rradius 133.474
rwrist 21.6633
rhand 3.68336 -27.9426
rfingers 7.12502
rthumb 29.1134 -55.6868
lclavicle 3.84648e-014 1.39149e-014
lhumerus -28.3989 -37.9195 109.044
lradius 139.188
lwrist 4.47817
lhand -23.0888 -42.4747
lfingers 7.12502
lthumb 3.35734 -12.5214
rfemur -11.1729 26.1938 21.4822
rtibia 3.92961
rfoot -8.23023 -10.574
rtoes -8.8725
lfemur -170.04 -143.507 -198.42
ltibia -4.51906
lfoot -63.2806 57.6951
ltoes 36.2038
1477
root 0.0706616 17.5733 9.20031 15.8528 -28.3316 -10.1919
lowerback -1.14591 0.830379 8.02791
upperback -10.8975 1.52385 1.71525
thorax -10.9192 0.0325236 -2.73008
lowerneck -10.4097 0.99298 2.00434
upperneck 20.4607 -0.404418 6.0467
head 8.06997 0.509506 1.62672
rclavicle 2.09718e-014 -1.47101e-014
rhumerus -13.312 45.7387 -106.566
rradius 133.629
rwrist 21.2149
rhand 4.12034 -28.0311
rfingers 7.12502
rthumb 29.5306 -55.7024
lclavicle 2.09718e-014 -1.47101e-014
lhumerus -28.4923 -37.7592 109.458
lradius 139.165
lwrist 4.38736
lhand -23.0208 -42.636
lfingers 7.12502
lthumb 3.423 -12.6838
rfemur -10.9622 26.2917 21.4743
rtibia 3.76156
rfoot -8.22355 -9.9519
rtoes -8.91701
lfemur -169.514 -143.769 -199.015
ltibia -4.50862
lfoot -64.1479 57.8171
ltoes 36.3029
1478
root 0.0880811 17.5614 9.23824 16.0406 -28.4426 -10.9788
lowerback -1.2396 0.590811 9.28286
upperback -10.9148 1.27695 2.12056
thorax -10.9383 -0.18665 -2.9618
lowerneck -10.4624 1.2303 2.12473
upperneck 20.6593 -0.0764192 5.86735
head 8.1386 0.661829 1.58282
rclavicle 6.4605e-016 2.18663e-015
rhumerus -13.1863 46.1412 -106.424
rradius 133.578
rwrist 21.4881
rhand 3.76145 -28.2975
rfingers 7.12502
rthumb 29.1879 -56.0288
lclavicle 6.4605e-016 2.18663e-015
lhumerus -28.5035 -37.5289 109.615
lradius 139.196
lwrist 4.57599
lhand -22.812 -43.1734
lfingers 7.12502
lthumb 3.62464 -13.2245
rfemur -10.5106 26.2031 22.385
rtibia 3.67979
rfoot -8.32692 -9.57428
rtoes -8.64203
lfemur -168.821 -143.675 -198.873
ltibia -4.63474
lfoot -64.8807 58.1546
ltoes 36.0522
1479
root 0.0908597 17.5564 9.26938 16.1435 -28.3793 -11.0247
lowerback -1.70032 0.441886 9.64141
upperback -10.9898 1.04969 2.33294
thorax -10.7877 -0.317402 -2.90638
lowerneck -10.5484 1.38958 2.08965
upperneck 20.6866 0.137802 5.90625
head 8.15839 0.766642 1.62447
rclavicle 3.6477e-014 1.22253e-014
rhumerus -12.9097 46.4598 -106.188
rradius 133.533
rwrist 21.5618
rhand 3.3294 -28.3693
rfingers 7.12502
rthumb 28.7753 -56.1715
lclavicle 3.6477e-014 1.22253e-014
lhumerus -28.1986 -37.4006 109.44
lradius 139.274
lwrist 5.06639
lhand -22.5731 -43.2632
lfingers 7.12502
lthumb 3.85537 -13.3183
rfemur -10.5303 26.5155 22.3493
rtibia 3.73776
rfoot -8.4635 -9.86707
rtoes -8.40391
lfemur -168.552 -142.902 -199.23
ltibia -4.64628
lfoot -66.6073 58.4607
ltoes 36.177
